<svg id="SvgjsSvg1001" width="288" height="288" xmlns="http://www.w3.org/2000/svg" version="1.1" xmlns:xlink="http://www.w3.org/1999/xlink" xmlns:svgjs="http://svgjs.com/svgjs"><defs id="SvgjsDefs1002"></defs><g id="SvgjsG1008" transform="matrix(0.916700005531311,0,0,0.916700005531311,11.995199203491211,11.995199203491211)"><svg xmlns="http://www.w3.org/2000/svg" viewBox="0 0 24 24" width="288" height="288"><g data-name="Code Application" fill="#000000" class="color000 svgShape"><path fill="#036c9c" d="M9.18 16.38a.5.5 0 10.64-.77L7.28 13.5l2.54-2.12a.5.5 0 10-.64-.77l-3 2.5a.5.5 0 000 .77zM14.12 16.32a.5.5 0 00.7.06l3-2.5a.5.5 0 000-.77l-3-2.5a.5.5 0 10-.64.77l2.54 2.12-2.54 2.12A.5.5 0 0014.12 16.32zM10.3 17.46a.49.49 0 00.2 0 .5.5 0 00.46-.3l3-7A.5.5 0 0013 9.8l-3 7A.5.5 0 0010.3 17.46z" class="color303c42 svgShape"></path><path fill="#036c9c" d="M21,1H3A2,2,0,0,0,1,3V21a2,2,0,0,0,2,2H21a2,2,0,0,0,2-2V3A2,2,0,0,0,21,1ZM7.5,3a.5.5,0,1,1-.5.5A.5.5,0,0,1,7.5,3Zm-2,0a.5.5,0,1,1-.5.5A.5.5,0,0,1,5.5,3Zm-2,0a.5.5,0,1,1-.5.5A.5.5,0,0,1,3.5,3ZM21,21H3V6H21Z" class="color303c42 svgShape"></path></g></svg></g></svg>