<svg id="SvgjsSvg1001" width="288" height="288" xmlns="http://www.w3.org/2000/svg" version="1.1" xmlns:xlink="http://www.w3.org/1999/xlink" xmlns:svgjs="http://svgjs.com/svgjs"><defs id="SvgjsDefs1002"></defs><g id="SvgjsG1008" transform="matrix(0.916700005531311,0,0,0.916700005531311,11.981207847595215,11.995687484741211)"><svg xmlns="http://www.w3.org/2000/svg" viewBox="0 0 24 24" width="288" height="288"><path d="M12,14a1,1,0,1,0,1,1A1,1,0,0,0,12,14ZM12,2A10,10,0,0,0,2,12a9.89,9.89,0,0,0,2.26,6.33l-2,2a1,1,0,0,0-.21,1.09A1,1,0,0,0,3,22h9A10,10,0,0,0,12,2Zm0,18H5.41l.93-.93a1,1,0,0,0,.3-.71,1,1,0,0,0-.3-.7A8,8,0,1,1,12,20ZM12,8a1,1,0,0,0-1,1v3a1,1,0,0,0,2,0V9A1,1,0,0,0,12,8Z" fill="#dc980f" class="color000 svgShape"></path></svg></g></svg>