<?xml version="1.0" encoding="UTF-8"?><svg xmlns="http://www.w3.org/2000/svg" xmlns:xlink="http://www.w3.org/1999/xlink" viewBox="0 0 24 24" version="1.1"><path d="M4 2c-1.105 0-2 .895-2 2v12c0 1.105.895 2 2 2h6v1H6l-3 3h18l-3-3h-4v-1h6c1.105 0 2-.895 2-2V4c0-1.105-.895-2-2-2zm0 2h16v12H4zm5.75 2L6 9.75l3.75 3.75L11 12.25l-2.5-2.5 2.5-2.5zm4.5 0L13 7.25l2.5 2.5-2.5 2.5 1.25 1.25L18 9.75z" id="surface1"/><metadata><rdf:RDF xmlns:rdf="http://www.w3.org/1999/02/22-rdf-syntax-ns#" xmlns:rdfs="http://www.w3.org/2000/01/rdf-schema#" xmlns:dc="http://purl.org/dc/elements/1.1/"><rdf:Description about="https://iconscout.com/legal#licenses" dc:title="google,code" dc:description="google,code" dc:publisher="Iconscout" dc:date="2018-06-22" dc:format="image/svg+xml" dc:language="en"><dc:creator><rdf:Bag><rdf:li>Icons8</rdf:li></rdf:Bag></dc:creator></rdf:Description></rdf:RDF></metadata></svg>