<svg id="SvgjsSvg1013" width="288" height="288" xmlns="http://www.w3.org/2000/svg" version="1.1" xmlns:xlink="http://www.w3.org/1999/xlink" xmlns:svgjs="http://svgjs.com/svgjs"><defs id="SvgjsDefs1014"></defs><g id="SvgjsG1015" transform="matrix(0.916700005531311,0,0,0.916700005531311,11.995199203491211,11.995199203491211)"><svg xmlns="http://www.w3.org/2000/svg" viewBox="0 0 30 30" width="288" height="288"><g fill="#303c42" class="color303C42 svgShape"><path d="M28 2H2C.897 2 0 2.897 0 4v18c0 1.103.897 2 2 2h8.977c-.061.838-.274 2.165-.857 2.74a.818.818 0 0 1-.592.26H9.5a.5.5 0 0 0-.005 1H20.5a.5.5 0 0 0 .005-1c-1.03-.01-1.392-1.884-1.48-3H28c1.103 0 2-.897 2-2V4c0-1.103-.897-2-2-2zM15 23.003c-.553 0-1.003-.45-1.003-1.003s.45-1.003 1.003-1.003 1.003.45 1.003 1.003-.45 1.003-1.003 1.003zM2 20V4h26v16H2z" fill="#4a4a4a" class="color000 svgShape"></path><path d="M23.474 15.841L23 14.42V10.5a.5.5 0 0 0-.315-.464l-7.526-3a.502.502 0 0 0-.371 0l-7.474 3a.5.5 0 0 0 0 .929l5.371 2.148a.502.502 0 0 1 .28.65.504.504 0 0 1-.651.28L9.686 12.99a.5.5 0 0 0-.686.464v1.396c0 .592.35 1.13.89 1.37l2.993 1.33c.67.298 1.382.45 2.117.45s1.447-.152 2.117-.45l2.992-1.33A1.5 1.5 0 0 0 21 14.85v-3.212l1-.4v3.181l-.474 1.422a.5.5 0 0 0 .12.512l.5.5a.498.498 0 0 0 .708 0l.5-.5a.5.5 0 0 0 .12-.512z" fill="#4a4a4a" class="color000 svgShape"></path></g></svg></g></svg>