<?xml version="1.0" encoding="UTF-8"?><svg xmlns="http://www.w3.org/2000/svg" xmlns:xlink="http://www.w3.org/1999/xlink" version="1.1" id="Layer_1" x="0px" y="0px" viewBox="0 0 30 30" xml:space="preserve"><g fill="#303C42"><path d="M29.5 22H28V7c0-1.103-.925-2-2.061-2H4.083c-1.136 0-2.06.897-2.06 1.999L2 22H.5a.5.5 0 0 0-.5.5v1c0 .827.673 1.5 1.5 1.5h27c.827 0 1.5-.673 1.5-1.5v-1a.5.5 0 0 0-.5-.5zM4 7h22v15h-7.5a.5.5 0 0 0-.224.053l-.894.447h-4.764l-.894-.447A.5.5 0 0 0 11.5 22H4V7z"/><path d="M23.474 17.842L23 16.419V12.5a.5.5 0 0 0-.315-.464l-7.526-3a.502.502 0 0 0-.371 0l-7.474 3a.5.5 0 0 0 0 .928l5.371 2.148a.502.502 0 0 1 .28.65.504.504 0 0 1-.652.28L9.686 14.99a.5.5 0 0 0-.686.464v1.396c0 .592.35 1.13.89 1.37l2.993 1.33c.67.299 1.382.45 2.117.45s1.447-.151 2.117-.45l2.992-1.33A1.5 1.5 0 0 0 21 16.85v-3.212l1-.4v3.181l-.474 1.423a.5.5 0 0 0 .12.512l.5.5a.498.498 0 0 0 .708 0l.5-.5a.5.5 0 0 0 .12-.512z"/></g><metadata><rdf:RDF xmlns:rdf="http://www.w3.org/1999/02/22-rdf-syntax-ns#" xmlns:rdfs="http://www.w3.org/2000/01/rdf-schema#" xmlns:dc="http://purl.org/dc/elements/1.1/"><rdf:Description about="https://iconscout.com/legal#licenses" dc:title="course,elearning,online,video,e,learning,mobil,laptop,computer" dc:description="course,elearning,online,video,e,learning,mobil,laptop,computer" dc:publisher="Iconscout" dc:date="2017-11-29" dc:format="image/svg+xml" dc:language="en"><dc:creator><rdf:Bag><rdf:li>Those Icons</rdf:li></rdf:Bag></dc:creator></rdf:Description></rdf:RDF></metadata></svg>