<?xml version="1.0" encoding="UTF-8"?><svg xmlns="http://www.w3.org/2000/svg" xmlns:xlink="http://www.w3.org/1999/xlink" version="1.1" id="Layer_1" x="0px" y="0px" viewBox="0 0 30 30" xml:space="preserve"><g fill="#303C42"><path d="M28 2H2C.897 2 0 2.897 0 4v18c0 1.103.897 2 2 2h8.977c-.061.838-.274 2.165-.857 2.74a.818.818 0 0 1-.592.26H9.5a.5.5 0 0 0-.005 1H20.5a.5.5 0 0 0 .005-1c-1.03-.01-1.392-1.884-1.48-3H28c1.103 0 2-.897 2-2V4c0-1.103-.897-2-2-2zM15 23.003c-.553 0-1.003-.45-1.003-1.003s.45-1.003 1.003-1.003 1.003.45 1.003 1.003-.45 1.003-1.003 1.003zM2 20V4h26v16H2z"/><path d="M23.474 15.841L23 14.42V10.5a.5.5 0 0 0-.315-.464l-7.526-3a.502.502 0 0 0-.371 0l-7.474 3a.5.5 0 0 0 0 .929l5.371 2.148a.502.502 0 0 1 .28.65.504.504 0 0 1-.651.28L9.686 12.99a.5.5 0 0 0-.686.464v1.396c0 .592.35 1.13.89 1.37l2.993 1.33c.67.298 1.382.45 2.117.45s1.447-.152 2.117-.45l2.992-1.33A1.5 1.5 0 0 0 21 14.85v-3.212l1-.4v3.181l-.474 1.422a.5.5 0 0 0 .12.512l.5.5a.498.498 0 0 0 .708 0l.5-.5a.5.5 0 0 0 .12-.512z"/></g><metadata><rdf:RDF xmlns:rdf="http://www.w3.org/1999/02/22-rdf-syntax-ns#" xmlns:rdfs="http://www.w3.org/2000/01/rdf-schema#" xmlns:dc="http://purl.org/dc/elements/1.1/"><rdf:Description about="https://iconscout.com/legal#licenses" dc:title="course,elearning,online,video,e,learning,desktop,computer,knowledge,studying" dc:description="course,elearning,online,video,e,learning,desktop,computer,knowledge,studying" dc:publisher="Iconscout" dc:date="2017-11-29" dc:format="image/svg+xml" dc:language="en"><dc:creator><rdf:Bag><rdf:li>Those Icons</rdf:li></rdf:Bag></dc:creator></rdf:Description></rdf:RDF></metadata></svg>