<svg id="SvgjsSvg1001" width="288" height="288" xmlns="http://www.w3.org/2000/svg" version="1.1" xmlns:xlink="http://www.w3.org/1999/xlink" xmlns:svgjs="http://svgjs.com/svgjs"><defs id="SvgjsDefs1002"></defs><g id="SvgjsG1008" transform="matrix(0.916700005531311,0,0,0.916700005531311,11.995199203491211,11.995199203491211)"><svg xmlns="http://www.w3.org/2000/svg" viewBox="0 0 30 30" width="288" height="288"><g fill="#303c42" class="color303C42 svgShape"><path d="M29.5 22H28V7c0-1.103-.925-2-2.061-2H4.083c-1.136 0-2.06.897-2.06 1.999L2 22H.5a.5.5 0 0 0-.5.5v1c0 .827.673 1.5 1.5 1.5h27c.827 0 1.5-.673 1.5-1.5v-1a.5.5 0 0 0-.5-.5zM4 7h22v15h-7.5a.5.5 0 0 0-.224.053l-.894.447h-4.764l-.894-.447A.5.5 0 0 0 11.5 22H4V7z" fill="#dc980f" class="color000 svgShape"></path><path d="M23.474 17.842L23 16.419V12.5a.5.5 0 0 0-.315-.464l-7.526-3a.502.502 0 0 0-.371 0l-7.474 3a.5.5 0 0 0 0 .928l5.371 2.148a.502.502 0 0 1 .28.65.504.504 0 0 1-.652.28L9.686 14.99a.5.5 0 0 0-.686.464v1.396c0 .592.35 1.13.89 1.37l2.993 1.33c.67.299 1.382.45 2.117.45s1.447-.151 2.117-.45l2.992-1.33A1.5 1.5 0 0 0 21 16.85v-3.212l1-.4v3.181l-.474 1.423a.5.5 0 0 0 .12.512l.5.5a.498.498 0 0 0 .708 0l.5-.5a.5.5 0 0 0 .12-.512z" fill="#dc980f" class="color000 svgShape"></path></g></svg></g></svg>