<?xml version="1.0" encoding="UTF-8"?><svg xmlns="http://www.w3.org/2000/svg" xmlns:xlink="http://www.w3.org/1999/xlink" version="1.1" id="Layer_1" x="0px" y="0px" viewBox="0 0 30 30" xml:space="preserve"><g fill="#303C42"><path d="M28 9h-7.293l-4.756-4.756c.02-.08.049-.158.049-.244a1 1 0 0 0-2 0c0 .086.029.164.05.244L9.292 9H2c-1.103 0-2 .897-2 2v14c0 1.103.897 2 2 2h26c1.103 0 2-.897 2-2V11c0-1.103-.897-2-2-2zM14.756 4.95c.08.021.158.05.244.05s.164-.029.244-.05L19.293 9h-8.586l4.05-4.05zM12 21.5H9.5A.5.5 0 0 1 9 21v-6a.5.5 0 1 1 1 0v5.5h2a.5.5 0 1 1 0 1zm5-.5a.5.5 0 1 1-1 0v-1.5h-2V21a.5.5 0 1 1-1 0v-4.5c0-1.103.897-2 2-2s2 .897 2 2V21zm5-1.5c0 1.103-.897 2-2 2h-1.5a.5.5 0 0 1-.5-.5v-6a.5.5 0 0 1 .5-.5H20c1.103 0 2 .897 2 2 0 .597-.263 1.133-.679 1.5.416.367.679.903.679 1.5z"/><path d="M15 15.5c-.552 0-1 .449-1 1v2h2v-2c0-.551-.448-1-1-1z"/><path d="M20 15.5h-1v2h1a1.001 1.001 0 0 0 0-2z"/><path d="M20 18.5h-1v2h1a1.001 1.001 0 0 0 0-2z"/></g><metadata><rdf:RDF xmlns:rdf="http://www.w3.org/1999/02/22-rdf-syntax-ns#" xmlns:rdfs="http://www.w3.org/2000/01/rdf-schema#" xmlns:dc="http://purl.org/dc/elements/1.1/"><rdf:Description about="https://iconscout.com/legal#licenses" dc:title="lab,laboratory,science,school,studying" dc:description="lab,laboratory,science,school,studying" dc:publisher="Iconscout" dc:date="2017-11-29" dc:format="image/svg+xml" dc:language="en"><dc:creator><rdf:Bag><rdf:li>Those Icons</rdf:li></rdf:Bag></dc:creator></rdf:Description></rdf:RDF></metadata></svg>