<?xml version="1.0" encoding="UTF-8"?><svg xmlns="http://www.w3.org/2000/svg" xmlns:xlink="http://www.w3.org/1999/xlink" version="1.1" id="Layer_1" x="0px" y="0px" viewBox="0 0 30 30" xml:space="preserve"><g fill="#303C42"><path d="M29.5 14h-.55C28.456 7.079 22.92 1.543 16 1.05V.5a.5.5 0 0 0-.5-.5h-1a.5.5 0 0 0-.5.5v.55C7.079 1.544 1.543 7.08 1.05 14H.5a.5.5 0 0 0-.5.5v1a.5.5 0 0 0 .5.5h.55C1.544 22.921 7.08 28.457 14 28.95v.55a.5.5 0 0 0 .5.5h1a.5.5 0 0 0 .5-.5v-.55c6.921-.493 12.457-6.029 12.95-12.95h.55a.5.5 0 0 0 .5-.5v-1a.5.5 0 0 0-.5-.5zm-14 11h-1a.5.5 0 0 0-.5.5v1.45C8.18 26.465 3.534 21.818 3.05 16H4.5a.5.5 0 0 0 .5-.5v-1a.5.5 0 0 0-.5-.5H3.05C3.535 8.181 8.18 3.534 14 3.05V4.5a.5.5 0 0 0 .5.5h1a.5.5 0 0 0 .5-.5V3.05c5.82.484 10.466 5.131 10.95 10.95H25.5a.5.5 0 0 0-.5.5v1a.5.5 0 0 0 .5.5h1.45c-.484 5.819-5.13 10.466-10.95 10.95V25.5a.5.5 0 0 0-.5-.5z"/><path d="M23.474 17.842L23 16.419V12.5a.5.5 0 0 0-.315-.464l-7.526-3a.502.502 0 0 0-.371 0l-7.474 3a.5.5 0 0 0 0 .928l5.371 2.148a.502.502 0 0 1 .28.65.504.504 0 0 1-.651.28L9.686 14.99a.5.5 0 0 0-.686.464v1.396c0 .592.35 1.13.89 1.37l2.993 1.33c.67.299 1.382.45 2.117.45s1.447-.151 2.117-.45l2.992-1.33A1.5 1.5 0 0 0 21 16.85v-3.212l1-.4v3.181l-.474 1.423a.5.5 0 0 0 .12.512l.5.5a.498.498 0 0 0 .708 0l.5-.5a.5.5 0 0 0 .12-.512z"/></g><metadata><rdf:RDF xmlns:rdf="http://www.w3.org/1999/02/22-rdf-syntax-ns#" xmlns:rdfs="http://www.w3.org/2000/01/rdf-schema#" xmlns:dc="http://purl.org/dc/elements/1.1/"><rdf:Description about="https://iconscout.com/legal#licenses" dc:title="target,student,goal,school" dc:description="target,student,goal,school" dc:publisher="Iconscout" dc:date="2017-11-29" dc:format="image/svg+xml" dc:language="en"><dc:creator><rdf:Bag><rdf:li>Those Icons</rdf:li></rdf:Bag></dc:creator></rdf:Description></rdf:RDF></metadata></svg>