<svg xmlns="http://www.w3.org/2000/svg" data-name="Layer 1" viewBox="0 0 128 128"><circle cx="44" cy="15" r="15"/><path d="M126,54h-4V48a2.0001,2.0001,0,0,0-2-2H96a2.0001,2.0001,0,0,0-2,2v8a2.0001,2.0001,0,0,0,2,2h4v4H97a2.0001,2.0001,0,0,0-2,2v6H4a4,4,0,0,0-4,4v6a4,4,0,0,0,4,4h6v42a2,2,0,0,0,4,0V96H81v9a6.00656,6.00656,0,0,0,6,6h27v15a2,2,0,0,0,4,0V84h6a4,4,0,0,0,4-4V74a4,4,0,0,0-4-4h-1V66h3a2.0001,2.0001,0,0,0,2-2V56A2.0001,2.0001,0,0,0,126,54ZM98,54V50h20v4Zm16,53H87a2.00229,2.00229,0,0,1-2-2V96h29Zm0-15H14V84H114Zm5-22H99V66h20Z"/><path d="M11 63.65V66h4.00006V63.6499A6.005 6.005 0 0 0 19 58V54a6.00508 6.00508 0 0 0-3.99994-5.6499l.00006-5.83551L42 51.93982V66h4V51.79913L73 41.75586V48.35A6.005 6.005 0 0 0 69 54v4a6.005 6.005 0 0 0 4 5.65V66h4V63.65A6.005 6.005 0 0 0 81 58V54a6.005 6.005 0 0 0-4-5.65V40a2.55253 2.55253 0 0 0-2.52338-2.84052 3.523 3.523 0 0 0-1.22565.235l-1.89478.70483A19.61885 19.61885 0 0 0 58.27014 27.50342a19.11974 19.11974 0 0 1-4.07117 3.501 15.33227 15.33227 0 0 1 13.42474 8.4834L44.16327 48.2146a1.00021 1.00021 0 0 1-.67822.0069l-23.36719-8.1571a15.30335 15.30335 0 0 1 13.6839-9.06012A19.12085 19.12085 0 0 1 29.73 27.50305 19.60181 19.60181 0 0 0 16.34015 38.74567l-1.5636-.54584a3.56472 3.56472 0 0 0-1.17407-.21075A2.61906 2.61906 0 0 0 11 40.88147V48.35A6.005 6.005 0 0 0 7 54v4A6.005 6.005 0 0 0 11 63.65zM96 30A15 15 0 1 0 81 15 15.01672 15.01672 0 0 0 96 30zM94 10a2 2 0 0 1 4 0v3h3a2 2 0 0 1 0 4H96a2.0001 2.0001 0 0 1-2-2z"/></svg>